<svg xmlns="http://www.w3.org/2000/svg" width="2064" height="2752" viewBox="0 0 2064 2752">
    <defs>
      <linearGradient id="bgipad1" x1="0" y1="0" x2="0" y2="1">
        <stop offset="0%" stop-color="#FFF4E6"/>
        <stop offset="55%" stop-color="#FFE2DE"/>
        <stop offset="100%" stop-color="#F7C9B8"/>
      </linearGradient>
      <pattern id="paperipad1" width="38" height="38" patternUnits="userSpaceOnUse">
        <circle cx="6" cy="9" r="1.4" fill="#C8956C" opacity=".18"/>
        <circle cx="29" cy="24" r="1.2" fill="#C8956C" opacity=".16"/>
      </pattern>
      <filter id="shadowipad1" x="-20%" y="-20%" width="140%" height="140%">
        <feDropShadow dx="0" dy="18" stdDeviation="16" flood-color="#8D5F48" flood-opacity=".20"/>
      </filter>
    </defs>
    <rect width="100%" height="100%" fill="url(#bgipad1)"/>
    <rect width="100%" height="100%" fill="url(#paperipad1)"/>
    <text x="1032" y="180" font-family="Apple SD Gothic Neo, Arial, sans-serif" font-size="108" font-weight="900" fill="#5D4037" text-anchor="middle"><tspan x="1032" dy="0">그림으로 바로 이해</tspan></text>
    <text x="1032" y="444.6" font-family="Apple SD Gothic Neo, Arial, sans-serif" font-size="42" font-weight="800" fill="#8D6E63" text-anchor="middle"><tspan x="1032" dy="0">초등 1-3학년 눈높이에 맞춘 시각화 문제</tspan></text>
    <g filter="url(#shadowipad1)"><g transform="translate(289 523)">
    <rect width="1486" height="1706" rx="68" fill="#2A1810" opacity=".18"/>
    <rect x="0" y="-12" width="1486" height="1706" rx="68" fill="#fff" stroke="#F4D9CC" stroke-width="6"/>
    <clipPath id="clip-ipad-1"><rect x="34" y="22" width="1418" height="1638" rx="46"/></clipPath>
    <g clip-path="url(#clip-ipad-1)" transform="translate(34 22)">
      <rect width="1418" height="1638" fill="#FFE2DE"/>
    <rect x="36" y="44" width="116" height="48" rx="24" fill="#A0522D" stroke="none" stroke-width="0"/>
    <text x="94" y="78" font-family="Apple SD Gothic Neo, Arial, sans-serif" font-size="24" font-weight="900" fill="#fff" text-anchor="middle"><tspan x="94" dy="0">3 / 8</tspan></text>
    <rect x="1208" y="44" width="168" height="48" rx="24" fill="#FFF8F0" stroke="#F0D5C8" stroke-width="3"/>
    <text x="1292" y="76" font-family="Apple SD Gothic Neo, Arial, sans-serif" font-size="22" font-weight="900" fill="#8D6E63" text-anchor="middle"><tspan x="1292" dy="0">난이도 보통</tspan></text>
    <rect x="44" y="128" width="1330" height="285" rx="28" fill="#FFF8F0" stroke="#F0D5C8" stroke-width="4"/>
    <text x="78" y="188" font-family="Apple SD Gothic Neo, Arial, sans-serif" font-size="33" font-weight="900" fill="#5D4037" text-anchor="start"><tspan x="78" dy="0">사과 5개와 3개를 모으면</tspan><tspan x="78" dy="42">모두 몇 개일까요?</tspan></text>
    <g transform="translate(541 292)">
      <circle cx="0" cy="18" r="24" fill="#E95F4D" stroke="#A0522D" stroke-width="3"/>
      <path d="M-8 0 Q0 -18 10 0" fill="none" stroke="#6B4226" stroke-width="5" stroke-linecap="round"/>
      <ellipse cx="16" cy="1" rx="12" ry="6" fill="#6B8E23" transform="rotate(-24 16 1)"/>
      <circle cx="-8" cy="9" r="5" fill="#fff" opacity=".35"/>
    </g><g transform="translate(653 292)">
      <circle cx="0" cy="18" r="24" fill="#E95F4D" stroke="#A0522D" stroke-width="3"/>
      <path d="M-8 0 Q0 -18 10 0" fill="none" stroke="#6B4226" stroke-width="5" stroke-linecap="round"/>
      <ellipse cx="16" cy="1" rx="12" ry="6" fill="#6B8E23" transform="rotate(-24 16 1)"/>
      <circle cx="-8" cy="9" r="5" fill="#fff" opacity=".35"/>
    </g><g transform="translate(765 292)">
      <circle cx="0" cy="18" r="24" fill="#E95F4D" stroke="#A0522D" stroke-width="3"/>
      <path d="M-8 0 Q0 -18 10 0" fill="none" stroke="#6B4226" stroke-width="5" stroke-linecap="round"/>
      <ellipse cx="16" cy="1" rx="12" ry="6" fill="#6B8E23" transform="rotate(-24 16 1)"/>
      <circle cx="-8" cy="9" r="5" fill="#fff" opacity=".35"/>
    </g><g transform="translate(877 292)">
      <circle cx="0" cy="18" r="24" fill="#E95F4D" stroke="#A0522D" stroke-width="3"/>
      <path d="M-8 0 Q0 -18 10 0" fill="none" stroke="#6B4226" stroke-width="5" stroke-linecap="round"/>
      <ellipse cx="16" cy="1" rx="12" ry="6" fill="#6B8E23" transform="rotate(-24 16 1)"/>
      <circle cx="-8" cy="9" r="5" fill="#fff" opacity=".35"/>
    </g><g transform="translate(541 370)">
      <circle cx="0" cy="18" r="24" fill="#E95F4D" stroke="#A0522D" stroke-width="3"/>
      <path d="M-8 0 Q0 -18 10 0" fill="none" stroke="#6B4226" stroke-width="5" stroke-linecap="round"/>
      <ellipse cx="16" cy="1" rx="12" ry="6" fill="#6B8E23" transform="rotate(-24 16 1)"/>
      <circle cx="-8" cy="9" r="5" fill="#fff" opacity=".35"/>
    </g><g transform="translate(653 370)">
      <circle cx="0" cy="18" r="24" fill="#F5B14C" stroke="#A0522D" stroke-width="3"/>
      <path d="M-8 0 Q0 -18 10 0" fill="none" stroke="#6B4226" stroke-width="5" stroke-linecap="round"/>
      <ellipse cx="16" cy="1" rx="12" ry="6" fill="#6B8E23" transform="rotate(-24 16 1)"/>
      <circle cx="-8" cy="9" r="5" fill="#fff" opacity=".35"/>
    </g><g transform="translate(765 370)">
      <circle cx="0" cy="18" r="24" fill="#F5B14C" stroke="#A0522D" stroke-width="3"/>
      <path d="M-8 0 Q0 -18 10 0" fill="none" stroke="#6B4226" stroke-width="5" stroke-linecap="round"/>
      <ellipse cx="16" cy="1" rx="12" ry="6" fill="#6B8E23" transform="rotate(-24 16 1)"/>
      <circle cx="-8" cy="9" r="5" fill="#fff" opacity=".35"/>
    </g><g transform="translate(877 370)">
      <circle cx="0" cy="18" r="24" fill="#F5B14C" stroke="#A0522D" stroke-width="3"/>
      <path d="M-8 0 Q0 -18 10 0" fill="none" stroke="#6B4226" stroke-width="5" stroke-linecap="round"/>
      <ellipse cx="16" cy="1" rx="12" ry="6" fill="#6B8E23" transform="rotate(-24 16 1)"/>
      <circle cx="-8" cy="9" r="5" fill="#fff" opacity=".35"/>
    </g>
    <rect x="54" y="470" width="1310" height="70" rx="20" fill="#FFF8F0" stroke="#F0D5C8" stroke-width="4"/>
        <circle cx="98" cy="505" r="22" fill="#F0D5C8"/>
        <text x="98" y="514" font-family="Apple SD Gothic Neo, Arial, sans-serif" font-size="23" font-weight="900" fill="#5D4037" text-anchor="middle"><tspan x="98" dy="0">1</tspan></text>
        <text x="142" y="515" font-family="Apple SD Gothic Neo, Arial, sans-serif" font-size="31" font-weight="900" fill="#5D4037" text-anchor="start"><tspan x="142" dy="0">6</tspan></text><rect x="54" y="562" width="1310" height="70" rx="20" fill="#FFF8F0" stroke="#F0D5C8" stroke-width="4"/>
        <circle cx="98" cy="597" r="22" fill="#F0D5C8"/>
        <text x="98" y="606" font-family="Apple SD Gothic Neo, Arial, sans-serif" font-size="23" font-weight="900" fill="#5D4037" text-anchor="middle"><tspan x="98" dy="0">2</tspan></text>
        <text x="142" y="607" font-family="Apple SD Gothic Neo, Arial, sans-serif" font-size="31" font-weight="900" fill="#5D4037" text-anchor="start"><tspan x="142" dy="0">7</tspan></text><rect x="54" y="654" width="1310" height="70" rx="20" fill="#A0522D" stroke="#A0522D" stroke-width="4"/>
        <circle cx="98" cy="689" r="22" fill="#fff"/>
        <text x="98" y="698" font-family="Apple SD Gothic Neo, Arial, sans-serif" font-size="23" font-weight="900" fill="#A0522D" text-anchor="middle"><tspan x="98" dy="0">3</tspan></text>
        <text x="142" y="699" font-family="Apple SD Gothic Neo, Arial, sans-serif" font-size="31" font-weight="900" fill="#fff" text-anchor="start"><tspan x="142" dy="0">8</tspan></text><rect x="54" y="746" width="1310" height="70" rx="20" fill="#FFF8F0" stroke="#F0D5C8" stroke-width="4"/>
        <circle cx="98" cy="781" r="22" fill="#F0D5C8"/>
        <text x="98" y="790" font-family="Apple SD Gothic Neo, Arial, sans-serif" font-size="23" font-weight="900" fill="#5D4037" text-anchor="middle"><tspan x="98" dy="0">4</tspan></text>
        <text x="142" y="791" font-family="Apple SD Gothic Neo, Arial, sans-serif" font-size="31" font-weight="900" fill="#5D4037" text-anchor="start"><tspan x="142" dy="0">9</tspan></text>
    <rect x="54" y="1534" width="1310" height="70" rx="24" fill="#C0392B"/>
    <text x="709" y="1578" font-family="Apple SD Gothic Neo, Arial, sans-serif" font-size="31" font-weight="900" fill="#fff" text-anchor="middle"><tspan x="709" dy="0">제출하기</tspan></text>
    </g>
  </g></g>
  </svg>