<svg xmlns="http://www.w3.org/2000/svg" width="2064" height="2752" viewBox="0 0 2064 2752">
    <defs>
      <linearGradient id="bgipad0" x1="0" y1="0" x2="0" y2="1">
        <stop offset="0%" stop-color="#FFF4E6"/>
        <stop offset="55%" stop-color="#FFE2DE"/>
        <stop offset="100%" stop-color="#F7C9B8"/>
      </linearGradient>
      <pattern id="paperipad0" width="38" height="38" patternUnits="userSpaceOnUse">
        <circle cx="6" cy="9" r="1.4" fill="#C8956C" opacity=".18"/>
        <circle cx="29" cy="24" r="1.2" fill="#C8956C" opacity=".16"/>
      </pattern>
      <filter id="shadowipad0" x="-20%" y="-20%" width="140%" height="140%">
        <feDropShadow dx="0" dy="18" stdDeviation="16" flood-color="#8D5F48" flood-opacity=".20"/>
      </filter>
    </defs>
    <rect width="100%" height="100%" fill="url(#bgipad0)"/>
    <rect width="100%" height="100%" fill="url(#paperipad0)"/>
    <text x="1032" y="180" font-family="Apple SD Gothic Neo, Arial, sans-serif" font-size="108" font-weight="900" fill="#5D4037" text-anchor="middle"><tspan x="1032" dy="0">깊은 땅에서 하늘까지</tspan></text>
    <text x="1032" y="444.6" font-family="Apple SD Gothic Neo, Arial, sans-serif" font-size="42" font-weight="800" fill="#8D6E63" text-anchor="middle"><tspan x="1032" dy="0">문제를 풀수록 지렁이가 한 단계씩 올라가요</tspan></text>
    <g filter="url(#shadowipad0)"><g transform="translate(289 523)">
    <rect width="1486" height="1706" rx="68" fill="#2A1810" opacity=".18"/>
    <rect x="0" y="-12" width="1486" height="1706" rx="68" fill="#fff" stroke="#F4D9CC" stroke-width="6"/>
    <clipPath id="clip-ipad-0"><rect x="34" y="22" width="1418" height="1638" rx="46"/></clipPath>
    <g clip-path="url(#clip-ipad-0)" transform="translate(34 22)">
      <rect width="1418" height="1638" fill="#2A1810"/>
    <rect y="900.9000000000001" width="1418" height="737.1" fill="#1A0F08"/>
    <path d="M0 1212.12 C 255.23999999999998 1113.8400000000001, 368.68 1408.68, 652.28 1277.64 S 1134.4 1081.0800000000002, 1418 1244.88 L 1418 1638 L0 1638Z" fill="#3A2418" opacity=".95"/>
    <path d="M0 327.6 C 283.6 409.5, 496.29999999999995 131.04, 737.36 294.84 S 1162.76 491.4, 1418 294.84" stroke="#8A5A3A" stroke-width="18" fill="none" opacity=".38"/>
    <rect x="42" y="46" width="190" height="58" rx="29" fill="rgba(255,248,240,.9)" stroke="#F0D5C8" stroke-width="3"/>
    <g><circle cx="72" cy="75" r="17" fill="#DAA520" stroke="#B8860B" stroke-width="2.21"/><text x="72" y="81.12" font-family="Arial" font-size="18.700000000000003" font-weight="900" fill="#FFF5C2" text-anchor="middle">₩</text></g>
    <text x="104" y="85" font-family="Apple SD Gothic Neo, Arial, sans-serif" font-size="28" font-weight="900" fill="#5D4037" text-anchor="start"><tspan x="104" dy="0">1,240</tspan></text>
    <rect x="1183" y="46" width="190" height="58" rx="29" fill="rgba(255,248,240,.9)" stroke="#F0D5C8" stroke-width="3"/>
    <text x="1278" y="83" font-family="Apple SD Gothic Neo, Arial, sans-serif" font-size="25" font-weight="900" fill="#A0522D" text-anchor="middle"><tspan x="1278" dy="0">2학년 1학기</tspan></text>
    <circle cx="709" cy="589.68" r="397.04" fill="#FFF3D0" opacity=".12"/>
    <g transform="translate(599 481.9200000000001) scale(1.85)">
    <ellipse cx="60" cy="72" rx="40" ry="4" fill="rgba(0,0,0,.18)"/>
    <g><circle cx="28" cy="50" r="14" fill="#E89B7A"/><circle cx="24" cy="48" r="10" fill="#C87A5A" opacity=".35"/></g><g><circle cx="44" cy="50" r="14" fill="#E89B7A"/><circle cx="40" cy="48" r="10" fill="#C87A5A" opacity=".35"/></g><g><circle cx="60" cy="50" r="14" fill="#E89B7A"/><circle cx="56" cy="48" r="10" fill="#C87A5A" opacity=".35"/></g><g><circle cx="76" cy="50" r="14" fill="#E89B7A"/><circle cx="72" cy="48" r="10" fill="#C87A5A" opacity=".35"/></g><g><circle cx="90" cy="50" r="14" fill="#E89B7A"/><circle cx="86" cy="48" r="10" fill="#C87A5A" opacity=".35"/></g>
    <circle cx="94" cy="46" r="13.5" fill="#E89B7A"/>
    <circle cx="88" cy="44" r="4" fill="#FFE6D3" opacity=".8"/>
    <circle cx="100" cy="54" r="3" fill="#F19C8A" opacity=".55"/>
    <circle cx="98" cy="46" r="2.4" fill="#2A1810"/>
    <circle cx="98.8" cy="45.4" r=".8" fill="#fff"/>
    <path d="M96 52 Q99 54 102 52" stroke="#6B3A2A" stroke-width="1.4" fill="none" stroke-linecap="round"/>
    <ellipse cx="99" cy="32" rx="10" ry="8" fill="#C88454"/><path d="M89 28 Q99 18 109 28 Q105 32 99 32 Q93 32 89 28 Z" fill="#6B4226"/><circle cx="99" cy="20" r="1.8" fill="#3A2410"/>
  </g>
    <rect x="184.34" y="1081.0800000000002" width="1049.32" height="185" rx="30" fill="#FFF8F0" stroke="#F0D5C8" stroke-width="4"/>
    <text x="283.6" y="1154.79" font-family="Apple SD Gothic Neo, Arial, sans-serif" font-size="25" font-weight="900" fill="#C0392B" text-anchor="start"><tspan x="283.6" dy="0">오늘의 개념</tspan></text>
    <text x="283.6" y="1236.69" font-family="Apple SD Gothic Neo, Arial, sans-serif" font-size="34" font-weight="900" fill="#5D4037" text-anchor="start"><tspan x="283.6" dy="0">받아올림이 있는 덧셈</tspan></text>
    <rect x="283.6" y="1367.73" width="850.8" height="20" rx="10" fill="#EAD3C8"/>
    <rect x="283.6" y="1367.73" width="538.84" height="20" rx="10" fill="#DAA520"/>
    <text x="709" y="1466.01" font-family="Apple SD Gothic Neo, Arial, sans-serif" font-size="24" font-weight="900" fill="#8D6E63" text-anchor="middle"><tspan x="709" dy="0">6 / 10 클리어</tspan></text>
    </g>
  </g></g>
  </svg>