<svg xmlns="http://www.w3.org/2000/svg" width="2064" height="2752" viewBox="0 0 2064 2752">
    <defs>
      <linearGradient id="bgipad2" x1="0" y1="0" x2="0" y2="1">
        <stop offset="0%" stop-color="#FFF4E6"/>
        <stop offset="55%" stop-color="#FFE2DE"/>
        <stop offset="100%" stop-color="#F7C9B8"/>
      </linearGradient>
      <pattern id="paperipad2" width="38" height="38" patternUnits="userSpaceOnUse">
        <circle cx="6" cy="9" r="1.4" fill="#C8956C" opacity=".18"/>
        <circle cx="29" cy="24" r="1.2" fill="#C8956C" opacity=".16"/>
      </pattern>
      <filter id="shadowipad2" x="-20%" y="-20%" width="140%" height="140%">
        <feDropShadow dx="0" dy="18" stdDeviation="16" flood-color="#8D5F48" flood-opacity=".20"/>
      </filter>
    </defs>
    <rect width="100%" height="100%" fill="url(#bgipad2)"/>
    <rect width="100%" height="100%" fill="url(#paperipad2)"/>
    <text x="1032" y="180" font-family="Apple SD Gothic Neo, Arial, sans-serif" font-size="108" font-weight="900" fill="#5D4037" text-anchor="middle"><tspan x="1032" dy="0">정답이면 코인 보상</tspan></text>
    <text x="1032" y="444.6" font-family="Apple SD Gothic Neo, Arial, sans-serif" font-size="42" font-weight="800" fill="#8D6E63" text-anchor="middle"><tspan x="1032" dy="0">풀이와 함께 별, 코인을 모으며 계속 도전해요</tspan></text>
    <g filter="url(#shadowipad2)"><g transform="translate(289 523)">
    <rect width="1486" height="1706" rx="68" fill="#2A1810" opacity=".18"/>
    <rect x="0" y="-12" width="1486" height="1706" rx="68" fill="#fff" stroke="#F4D9CC" stroke-width="6"/>
    <clipPath id="clip-ipad-2"><rect x="34" y="22" width="1418" height="1638" rx="46"/></clipPath>
    <g clip-path="url(#clip-ipad-2)" transform="translate(34 22)">
      <rect width="1418" height="1638" fill="#FFE2DE"/>
    <circle cx="709" cy="220" r="96" fill="#6B8E23"/>
    <path d="M669 220 L701 252 L757 184" stroke="#fff" stroke-width="16" fill="none" stroke-linecap="round" stroke-linejoin="round"/>
    <text x="709" y="370" font-family="Apple SD Gothic Neo, Arial, sans-serif" font-size="48" font-weight="900" fill="#5D4037" text-anchor="middle"><tspan x="709" dy="0">정답이에요!</tspan></text>
    <rect x="198.52" y="430" width="1020.9599999999999" height="120" rx="30" fill="#FFF8F0" stroke="#F0D5C8" stroke-width="4"/>
    <g><circle cx="453.76" cy="490" r="27" fill="#DAA520" stroke="#B8860B" stroke-width="3.5100000000000002"/><text x="453.76" y="499.72" font-family="Arial" font-size="29.700000000000003" font-weight="900" fill="#FFF5C2" text-anchor="middle">₩</text></g>
    <text x="609.74" y="503" font-family="Apple SD Gothic Neo, Arial, sans-serif" font-size="34" font-weight="900" fill="#DAA520" text-anchor="start"><tspan x="609.74" dy="0">+30 코인</tspan></text>
    <path d="M879.16 490 l18 -38 l18 38 l42 5 l-31 28 l8 41 l-36 -21 l-36 21 l8 -41 l-31 -28z" fill="#DAA520" stroke="#B8942A" stroke-width="3"/>
    <text x="1063.5" y="503" font-family="Apple SD Gothic Neo, Arial, sans-serif" font-size="34" font-weight="900" fill="#DAA520" text-anchor="start"><tspan x="1063.5" dy="0">+1 별</tspan></text>
    <rect x="54" y="610" width="1310" height="190" rx="28" fill="#fff" stroke="#F0D5C8" stroke-width="4"/>
    <text x="88" y="665" font-family="Apple SD Gothic Neo, Arial, sans-serif" font-size="27" font-weight="900" fill="#8D6E63" text-anchor="start"><tspan x="88" dy="0">풀이</tspan></text>
    <text x="88" y="725" font-family="Apple SD Gothic Neo, Arial, sans-serif" font-size="33" font-weight="800" fill="#5D4037" text-anchor="start"><tspan x="88" dy="0">5개와 3개를 더하면 모두</tspan><tspan x="88" dy="40.26">8개예요.</tspan></text>
    <rect x="54" y="850" width="1310" height="110" rx="25" fill="#DAA520"/>
    <text x="709" y="916" font-family="Apple SD Gothic Neo, Arial, sans-serif" font-size="29" font-weight="900" fill="#fff" text-anchor="middle"><tspan x="709" dy="0">개념 클리어! 지렁이가 전진했어요</tspan></text>
    </g>
  </g></g>
  </svg>