<svg xmlns="http://www.w3.org/2000/svg" width="1242" height="2688" viewBox="0 0 1242 2688">
    <defs>
      <linearGradient id="bgiphone3" x1="0" y1="0" x2="0" y2="1">
        <stop offset="0%" stop-color="#FFF4E6"/>
        <stop offset="55%" stop-color="#FFE2DE"/>
        <stop offset="100%" stop-color="#F7C9B8"/>
      </linearGradient>
      <pattern id="paperiphone3" width="38" height="38" patternUnits="userSpaceOnUse">
        <circle cx="6" cy="9" r="1.4" fill="#C8956C" opacity=".18"/>
        <circle cx="29" cy="24" r="1.2" fill="#C8956C" opacity=".16"/>
      </pattern>
      <filter id="shadowiphone3" x="-20%" y="-20%" width="140%" height="140%">
        <feDropShadow dx="0" dy="18" stdDeviation="16" flood-color="#8D5F48" flood-opacity=".20"/>
      </filter>
    </defs>
    <rect width="100%" height="100%" fill="url(#bgiphone3)"/>
    <rect width="100%" height="100%" fill="url(#paperiphone3)"/>
    <text x="621" y="170" font-family="Apple SD Gothic Neo, Arial, sans-serif" font-size="72" font-weight="900" fill="#5D4037" text-anchor="middle"><tspan x="621" dy="0">코인으로 꾸미기</tspan></text>
    <text x="621" y="346.4" font-family="Apple SD Gothic Neo, Arial, sans-serif" font-size="30" font-weight="800" fill="#8D6E63" text-anchor="middle"><tspan x="621" dy="0">모자와 장신구로 나만의 지렁이를</tspan><tspan x="621" dy="36.6">만들어요</tspan></text>
    <g filter="url(#shadowiphone3)"><g transform="translate(112 591)">
    <rect width="1018" height="1559" rx="56" fill="#2A1810" opacity=".18"/>
    <rect x="0" y="-12" width="1018" height="1559" rx="56" fill="#fff" stroke="#F4D9CC" stroke-width="6"/>
    <clipPath id="clip-iphone-3"><rect x="24" y="12" width="970" height="1511" rx="34"/></clipPath>
    <g clip-path="url(#clip-iphone-3)" transform="translate(24 12)">
      <rect width="970" height="1511" fill="#FFF6E8"/>
    <rect x="44" y="44" width="145" height="54" rx="27" fill="rgba(255,255,255,.85)" stroke="#F0D5C8" stroke-width="3"/>
    <text x="116" y="80" font-family="Apple SD Gothic Neo, Arial, sans-serif" font-size="24" font-weight="900" fill="#5D4037" text-anchor="middle"><tspan x="116" dy="0">내 가방</tspan></text>
    <rect x="786" y="44" width="138" height="54" rx="27" fill="rgba(255,255,255,.85)" stroke="#F0D5C8" stroke-width="3"/>
    <g><circle cx="818" cy="71" r="16" fill="#DAA520" stroke="#B8860B" stroke-width="2.08"/><text x="818" y="76.76" font-family="Arial" font-size="17.6" font-weight="900" fill="#FFF5C2" text-anchor="middle">₩</text></g>
    <text x="852" y="81" font-family="Apple SD Gothic Neo, Arial, sans-serif" font-size="24" font-weight="900" fill="#5D4037" text-anchor="start"><tspan x="852" dy="0">1,240</tspan></text>
    <rect x="54" y="125" width="862" height="330" rx="36" fill="rgba(255,255,255,.72)" stroke="#F0D5C8" stroke-width="4"/>
    <g transform="translate(335 230) scale(2.45)">
    <ellipse cx="60" cy="72" rx="40" ry="4" fill="rgba(0,0,0,.18)"/>
    <g><circle cx="28" cy="50" r="14" fill="#E89B7A"/><circle cx="24" cy="48" r="10" fill="#C87A5A" opacity=".35"/></g><g><circle cx="44" cy="50" r="14" fill="#E89B7A"/><circle cx="40" cy="48" r="10" fill="#C87A5A" opacity=".35"/></g><g><circle cx="60" cy="50" r="14" fill="#E89B7A"/><circle cx="56" cy="48" r="10" fill="#C87A5A" opacity=".35"/></g><g><circle cx="76" cy="50" r="14" fill="#E89B7A"/><circle cx="72" cy="48" r="10" fill="#C87A5A" opacity=".35"/></g><g><circle cx="90" cy="50" r="14" fill="#E89B7A"/><circle cx="86" cy="48" r="10" fill="#C87A5A" opacity=".35"/></g>
    <circle cx="94" cy="46" r="13.5" fill="#E89B7A"/>
    <circle cx="88" cy="44" r="4" fill="#FFE6D3" opacity=".8"/>
    <circle cx="100" cy="54" r="3" fill="#F19C8A" opacity=".55"/>
    <circle cx="98" cy="46" r="2.4" fill="#2A1810"/>
    <circle cx="98.8" cy="45.4" r=".8" fill="#fff"/>
    <path d="M96 52 Q99 54 102 52" stroke="#6B3A2A" stroke-width="1.4" fill="none" stroke-linecap="round"/>
    <path d="M86 31 L86 21 L92 27 L99 17 L106 27 L112 21 L112 31 Z" fill="#E8C860" stroke="#B8942A" stroke-width="1.4"/><circle cx="99" cy="21" r="2" fill="#C0392B"/><g fill="rgba(255,255,255,.35)" stroke="#2A1810" stroke-width="1.8"><circle cx="88" cy="53" r="5"/><circle cx="106" cy="53" r="5"/><path d="M93 53 L101 53"/></g>
  </g>
    <rect x="58" y="490" width="279.3333333333333" height="62" rx="22" fill="#A0522D" stroke="#F0D5C8" stroke-width="3"/>
        <text x="197.66666666666666" y="530" font-family="Apple SD Gothic Neo, Arial, sans-serif" font-size="24" font-weight="900" fill="#fff" text-anchor="middle"><tspan x="197.66666666666666" dy="0">모자</tspan></text><rect x="345.3333333333333" y="490" width="279.3333333333333" height="62" rx="22" fill="#FFF8F0" stroke="#F0D5C8" stroke-width="3"/>
        <text x="485" y="530" font-family="Apple SD Gothic Neo, Arial, sans-serif" font-size="24" font-weight="900" fill="#8D6E63" text-anchor="middle"><tspan x="485" dy="0">옷</tspan></text><rect x="632.6666666666666" y="490" width="279.3333333333333" height="62" rx="22" fill="#FFF8F0" stroke="#F0D5C8" stroke-width="3"/>
        <text x="772.3333333333333" y="530" font-family="Apple SD Gothic Neo, Arial, sans-serif" font-size="24" font-weight="900" fill="#8D6E63" text-anchor="middle"><tspan x="772.3333333333333" dy="0">장신구</tspan></text>
    <rect x="54" y="590" width="422" height="178" rx="24" fill="#FFF8F0" stroke="#F0D5C8" stroke-width="4"/>
        <g transform="translate(209 612) scale(0.95)">
    <ellipse cx="60" cy="72" rx="40" ry="4" fill="rgba(0,0,0,.18)"/>
    <g><circle cx="28" cy="50" r="14" fill="#E89B7A"/><circle cx="24" cy="48" r="10" fill="#C87A5A" opacity=".35"/></g><g><circle cx="44" cy="50" r="14" fill="#E89B7A"/><circle cx="40" cy="48" r="10" fill="#C87A5A" opacity=".35"/></g><g><circle cx="60" cy="50" r="14" fill="#E89B7A"/><circle cx="56" cy="48" r="10" fill="#C87A5A" opacity=".35"/></g><g><circle cx="76" cy="50" r="14" fill="#E89B7A"/><circle cx="72" cy="48" r="10" fill="#C87A5A" opacity=".35"/></g><g><circle cx="90" cy="50" r="14" fill="#E89B7A"/><circle cx="86" cy="48" r="10" fill="#C87A5A" opacity=".35"/></g>
    <circle cx="94" cy="46" r="13.5" fill="#E89B7A"/>
    <circle cx="88" cy="44" r="4" fill="#FFE6D3" opacity=".8"/>
    <circle cx="100" cy="54" r="3" fill="#F19C8A" opacity=".55"/>
    <circle cx="98" cy="46" r="2.4" fill="#2A1810"/>
    <circle cx="98.8" cy="45.4" r=".8" fill="#fff"/>
    <path d="M96 52 Q99 54 102 52" stroke="#6B3A2A" stroke-width="1.4" fill="none" stroke-linecap="round"/>
    <ellipse cx="99" cy="32" rx="10" ry="8" fill="#C88454"/><path d="M89 28 Q99 18 109 28 Q105 32 99 32 Q93 32 89 28 Z" fill="#6B4226"/><circle cx="99" cy="20" r="1.8" fill="#3A2410"/>
  </g>
        <text x="265" y="712" font-family="Apple SD Gothic Neo, Arial, sans-serif" font-size="24" font-weight="900" fill="#5D4037" text-anchor="middle"><tspan x="265" dy="0">도토리 모자</tspan></text>
        <g><circle cx="231" cy="741" r="14" fill="#DAA520" stroke="#B8860B" stroke-width="1.82"/><text x="231" y="746.04" font-family="Arial" font-size="15.400000000000002" font-weight="900" fill="#FFF5C2" text-anchor="middle">₩</text></g>
        <text x="257" y="750" font-family="Apple SD Gothic Neo, Arial, sans-serif" font-size="22" font-weight="900" fill="#DAA520" text-anchor="start"><tspan x="257" dy="0">120</tspan></text><rect x="494" y="590" width="422" height="178" rx="24" fill="#FFF8F0" stroke="#F0D5C8" stroke-width="4"/>
        <g transform="translate(649 612) scale(0.95)">
    <ellipse cx="60" cy="72" rx="40" ry="4" fill="rgba(0,0,0,.18)"/>
    <g><circle cx="28" cy="50" r="14" fill="#E89B7A"/><circle cx="24" cy="48" r="10" fill="#C87A5A" opacity=".35"/></g><g><circle cx="44" cy="50" r="14" fill="#E89B7A"/><circle cx="40" cy="48" r="10" fill="#C87A5A" opacity=".35"/></g><g><circle cx="60" cy="50" r="14" fill="#E89B7A"/><circle cx="56" cy="48" r="10" fill="#C87A5A" opacity=".35"/></g><g><circle cx="76" cy="50" r="14" fill="#E89B7A"/><circle cx="72" cy="48" r="10" fill="#C87A5A" opacity=".35"/></g><g><circle cx="90" cy="50" r="14" fill="#E89B7A"/><circle cx="86" cy="48" r="10" fill="#C87A5A" opacity=".35"/></g>
    <circle cx="94" cy="46" r="13.5" fill="#E89B7A"/>
    <circle cx="88" cy="44" r="4" fill="#FFE6D3" opacity=".8"/>
    <circle cx="100" cy="54" r="3" fill="#F19C8A" opacity=".55"/>
    <circle cx="98" cy="46" r="2.4" fill="#2A1810"/>
    <circle cx="98.8" cy="45.4" r=".8" fill="#fff"/>
    <path d="M96 52 Q99 54 102 52" stroke="#6B3A2A" stroke-width="1.4" fill="none" stroke-linecap="round"/>
    <path d="M86 31 L86 21 L92 27 L99 17 L106 27 L112 21 L112 31 Z" fill="#E8C860" stroke="#B8942A" stroke-width="1.4"/><circle cx="99" cy="21" r="2" fill="#C0392B"/>
  </g>
        <text x="705" y="712" font-family="Apple SD Gothic Neo, Arial, sans-serif" font-size="24" font-weight="900" fill="#5D4037" text-anchor="middle"><tspan x="705" dy="0">반짝 왕관</tspan></text>
        <g><circle cx="671" cy="741" r="14" fill="#DAA520" stroke="#B8860B" stroke-width="1.82"/><text x="671" y="746.04" font-family="Arial" font-size="15.400000000000002" font-weight="900" fill="#FFF5C2" text-anchor="middle">₩</text></g>
        <text x="697" y="750" font-family="Apple SD Gothic Neo, Arial, sans-serif" font-size="22" font-weight="900" fill="#DAA520" text-anchor="start"><tspan x="697" dy="0">300</tspan></text><rect x="54" y="795" width="422" height="178" rx="24" fill="#FFF8F0" stroke="#F0D5C8" stroke-width="4"/>
        <g transform="translate(209 817) scale(0.95)">
    <ellipse cx="60" cy="72" rx="40" ry="4" fill="rgba(0,0,0,.18)"/>
    <g><circle cx="28" cy="50" r="14" fill="#E89B7A"/><circle cx="24" cy="48" r="10" fill="#C87A5A" opacity=".35"/></g><g><circle cx="44" cy="50" r="14" fill="#E89B7A"/><circle cx="40" cy="48" r="10" fill="#C87A5A" opacity=".35"/></g><g><circle cx="60" cy="50" r="14" fill="#E89B7A"/><circle cx="56" cy="48" r="10" fill="#C87A5A" opacity=".35"/></g><g><circle cx="76" cy="50" r="14" fill="#E89B7A"/><circle cx="72" cy="48" r="10" fill="#C87A5A" opacity=".35"/></g><g><circle cx="90" cy="50" r="14" fill="#E89B7A"/><circle cx="86" cy="48" r="10" fill="#C87A5A" opacity=".35"/></g>
    <circle cx="94" cy="46" r="13.5" fill="#E89B7A"/>
    <circle cx="88" cy="44" r="4" fill="#FFE6D3" opacity=".8"/>
    <circle cx="100" cy="54" r="3" fill="#F19C8A" opacity=".55"/>
    <circle cx="98" cy="46" r="2.4" fill="#2A1810"/>
    <circle cx="98.8" cy="45.4" r=".8" fill="#fff"/>
    <path d="M96 52 Q99 54 102 52" stroke="#6B3A2A" stroke-width="1.4" fill="none" stroke-linecap="round"/>
    <path d="M86 32 Q86 20 98 20 Q110 20 110 32 Z" fill="#6B8E23"/><rect x="85" y="30" width="27" height="5" rx="2.5" fill="#4D6818"/><circle cx="98" cy="17" r="3" fill="#C8D088"/>
  </g>
        <text x="265" y="917" font-family="Apple SD Gothic Neo, Arial, sans-serif" font-size="24" font-weight="900" fill="#5D4037" text-anchor="middle"><tspan x="265" dy="0">초록 비니</tspan></text>
        <g><circle cx="231" cy="946" r="14" fill="#DAA520" stroke="#B8860B" stroke-width="1.82"/><text x="231" y="951.04" font-family="Arial" font-size="15.400000000000002" font-weight="900" fill="#FFF5C2" text-anchor="middle">₩</text></g>
        <text x="257" y="955" font-family="Apple SD Gothic Neo, Arial, sans-serif" font-size="22" font-weight="900" fill="#DAA520" text-anchor="start"><tspan x="257" dy="0">180</tspan></text><rect x="494" y="795" width="422" height="178" rx="24" fill="#FFF8F0" stroke="#F0D5C8" stroke-width="4"/>
        <g transform="translate(663 837) scale(2.6)"><circle cx="8" cy="7" r="5" stroke="#2A1810" stroke-width="1.8" fill="rgba(255,255,255,.35)"/><circle cx="26" cy="7" r="5" stroke="#2A1810" stroke-width="1.8" fill="rgba(255,255,255,.35)"/><path d="M13 7 L21 7" stroke="#2A1810" stroke-width="1.8"/></g>
        <text x="705" y="917" font-family="Apple SD Gothic Neo, Arial, sans-serif" font-size="24" font-weight="900" fill="#5D4037" text-anchor="middle"><tspan x="705" dy="0">동글 안경</tspan></text>
        <g><circle cx="671" cy="946" r="14" fill="#DAA520" stroke="#B8860B" stroke-width="1.82"/><text x="671" y="951.04" font-family="Arial" font-size="15.400000000000002" font-weight="900" fill="#FFF5C2" text-anchor="middle">₩</text></g>
        <text x="697" y="955" font-family="Apple SD Gothic Neo, Arial, sans-serif" font-size="22" font-weight="900" fill="#DAA520" text-anchor="start"><tspan x="697" dy="0">220</tspan></text>
    </g>
  </g></g>
  </svg>