<svg xmlns="http://www.w3.org/2000/svg" width="1242" height="2688" viewBox="0 0 1242 2688">
    <defs>
      <linearGradient id="bgiphone4" x1="0" y1="0" x2="0" y2="1">
        <stop offset="0%" stop-color="#FFF4E6"/>
        <stop offset="55%" stop-color="#FFE2DE"/>
        <stop offset="100%" stop-color="#F7C9B8"/>
      </linearGradient>
      <pattern id="paperiphone4" width="38" height="38" patternUnits="userSpaceOnUse">
        <circle cx="6" cy="9" r="1.4" fill="#C8956C" opacity=".18"/>
        <circle cx="29" cy="24" r="1.2" fill="#C8956C" opacity=".16"/>
      </pattern>
      <filter id="shadowiphone4" x="-20%" y="-20%" width="140%" height="140%">
        <feDropShadow dx="0" dy="18" stdDeviation="16" flood-color="#8D5F48" flood-opacity=".20"/>
      </filter>
    </defs>
    <rect width="100%" height="100%" fill="url(#bgiphone4)"/>
    <rect width="100%" height="100%" fill="url(#paperiphone4)"/>
    <text x="621" y="170" font-family="Apple SD Gothic Neo, Arial, sans-serif" font-size="72" font-weight="900" fill="#5D4037" text-anchor="middle"><tspan x="621" dy="0">맞춤 문제와 리포트</tspan></text>
    <text x="621" y="346.4" font-family="Apple SD Gothic Neo, Arial, sans-serif" font-size="30" font-weight="800" fill="#8D6E63" text-anchor="middle"><tspan x="621" dy="0">부족한 개념을 찾아 다음 문제를</tspan><tspan x="621" dy="36.6">추천해요</tspan></text>
    <g filter="url(#shadowiphone4)"><g transform="translate(112 591)">
    <rect width="1018" height="1559" rx="56" fill="#2A1810" opacity=".18"/>
    <rect x="0" y="-12" width="1018" height="1559" rx="56" fill="#fff" stroke="#F4D9CC" stroke-width="6"/>
    <clipPath id="clip-iphone-4"><rect x="24" y="12" width="970" height="1511" rx="34"/></clipPath>
    <g clip-path="url(#clip-iphone-4)" transform="translate(24 12)">
      <rect width="970" height="1511" fill="#FFF6E8"/>
    <rect x="54" y="60" width="862" height="150" rx="30" fill="#FFF8F0" stroke="#F0D5C8" stroke-width="4"/>
    <g transform="translate(84 82) scale(1.15)">
    <ellipse cx="60" cy="72" rx="40" ry="4" fill="rgba(0,0,0,.18)"/>
    <g><circle cx="28" cy="50" r="14" fill="#E89B7A"/><circle cx="24" cy="48" r="10" fill="#C87A5A" opacity=".35"/></g><g><circle cx="44" cy="50" r="14" fill="#E89B7A"/><circle cx="40" cy="48" r="10" fill="#C87A5A" opacity=".35"/></g><g><circle cx="60" cy="50" r="14" fill="#E89B7A"/><circle cx="56" cy="48" r="10" fill="#C87A5A" opacity=".35"/></g><g><circle cx="76" cy="50" r="14" fill="#E89B7A"/><circle cx="72" cy="48" r="10" fill="#C87A5A" opacity=".35"/></g><g><circle cx="90" cy="50" r="14" fill="#E89B7A"/><circle cx="86" cy="48" r="10" fill="#C87A5A" opacity=".35"/></g>
    <circle cx="94" cy="46" r="13.5" fill="#E89B7A"/>
    <circle cx="88" cy="44" r="4" fill="#FFE6D3" opacity=".8"/>
    <circle cx="100" cy="54" r="3" fill="#F19C8A" opacity=".55"/>
    <circle cx="98" cy="46" r="2.4" fill="#2A1810"/>
    <circle cx="98.8" cy="45.4" r=".8" fill="#fff"/>
    <path d="M96 52 Q99 54 102 52" stroke="#6B3A2A" stroke-width="1.4" fill="none" stroke-linecap="round"/>
    <path d="M86 32 Q86 20 98 20 Q110 20 110 32 Z" fill="#6B8E23"/><rect x="85" y="30" width="27" height="5" rx="2.5" fill="#4D6818"/><circle cx="98" cy="17" r="3" fill="#C8D088"/>
  </g>
    <text x="230" y="124" font-family="Apple SD Gothic Neo, Arial, sans-serif" font-size="34" font-weight="900" fill="#5D4037" text-anchor="start"><tspan x="230" dy="0">하린이의 학습 리포트</tspan></text>
    <text x="230" y="172" font-family="Apple SD Gothic Neo, Arial, sans-serif" font-size="26" font-weight="900" fill="#6B8E23" text-anchor="start"><tspan x="230" dy="0">이번 주 정확도 84%</tspan></text>
    <rect x="54" y="245" width="862" height="215" rx="30" fill="#fff" stroke="#F0D5C8" stroke-width="4"/>
    <text x="86" y="305" font-family="Apple SD Gothic Neo, Arial, sans-serif" font-size="28" font-weight="900" fill="#C0392B" text-anchor="start"><tspan x="86" dy="0">맞춤 추천</tspan></text>
    <text x="86" y="365" font-family="Apple SD Gothic Neo, Arial, sans-serif" font-size="32" font-weight="900" fill="#5D4037" text-anchor="start"><tspan x="86" dy="0">측정 단원에서 한 번 더</tspan><tspan x="86" dy="39.04">연습하면 좋아요.</tspan></text>
    <rect x="86" y="405" width="210" height="44" rx="22" fill="#FCE7DF" stroke="#F0D5C8" stroke-width="3"/>
    <text x="191" y="435" font-family="Apple SD Gothic Neo, Arial, sans-serif" font-size="23" font-weight="900" fill="#C0392B" text-anchor="middle"><tspan x="191" dy="0">추천 문제 6개</tspan></text>
    <rect x="54" y="500" width="862" height="310" rx="30" fill="#FFF8F0" stroke="#F0D5C8" stroke-width="4"/>
    <text x="86" y="560" font-family="Apple SD Gothic Neo, Arial, sans-serif" font-size="28" font-weight="900" fill="#5D4037" text-anchor="start"><tspan x="86" dy="0">단원별 이해도</tspan></text>
    <rect x="84" y="577" width="182.5" height="153" rx="12" fill="#DAA520"/>
      <text x="175.25" y="770" font-family="Apple SD Gothic Neo, Arial, sans-serif" font-size="23" font-weight="900" fill="#8D6E63" text-anchor="middle"><tspan x="175.25" dy="0">수</tspan></text><rect x="284.5" y="621.2" width="182.5" height="108.8" rx="12" fill="#DAA520"/>
      <text x="375.75" y="770" font-family="Apple SD Gothic Neo, Arial, sans-serif" font-size="23" font-weight="900" fill="#8D6E63" text-anchor="middle"><tspan x="375.75" dy="0">연산</tspan></text><rect x="485" y="597.4" width="182.5" height="132.6" rx="12" fill="#DAA520"/>
      <text x="576.25" y="770" font-family="Apple SD Gothic Neo, Arial, sans-serif" font-size="23" font-weight="900" fill="#8D6E63" text-anchor="middle"><tspan x="576.25" dy="0">도형</tspan></text><rect x="685.5" y="651.8" width="182.5" height="78.2" rx="12" fill="#C0392B"/>
      <text x="776.75" y="770" font-family="Apple SD Gothic Neo, Arial, sans-serif" font-size="23" font-weight="900" fill="#8D6E63" text-anchor="middle"><tspan x="776.75" dy="0">측정</tspan></text>
    <rect x="54" y="850" width="862" height="110" rx="25" fill="#A0522D"/>
    <text x="485" y="916" font-family="Apple SD Gothic Neo, Arial, sans-serif" font-size="30" font-weight="900" fill="#fff" text-anchor="middle"><tspan x="485" dy="0">오늘은 받아올림 덧셈부터 시작해요</tspan></text>
    </g>
  </g></g>
  </svg>